<svg enable-background="new 0 0 512 512" viewBox="0 0 512 512" xmlns="http://www.w3.org/2000/svg"><g id="Layer_31" display="none"><g display="inline"><g fill="none" stroke-miterlimit="10"><g stroke="#9d9d9d"><ellipse cx="256" cy="256" rx="248.1" ry="248.3"/><path d="m398.8 504.5h-285.6c-18.8 0-34.1-15.3-34.1-34.1v-428.8c0-18.8 15.3-34.1 34.1-34.1h285.5c18.8 0 34.1 15.3 34.1 34.1v428.9c.1 18.8-15.2 34-34 34z"/><path d="m7.9 399.8v-287.6c0-16.4 13.3-29.8 29.8-29.8h436.7c16.4 0 29.8 13.3 29.8 29.8v287.6c0 16.4-13.3 29.8-29.8 29.8h-436.8c-16.4 0-29.7-13.4-29.7-29.8z"/><path d="m440.4 469.9h-368.8c-16.4 0-29.8-13.3-29.8-29.8v-368.2c0-16.4 13.3-29.8 29.8-29.8h368.8c16.4 0 29.8 13.3 29.8 29.8v368.2c0 16.4-13.4 29.8-29.8 29.8z"/></g><path d="m7.5 7.5h497v497h-497z" stroke="#d71c24" transform="matrix(0 1 -1 0 512 0)"/></g></g></g><g id="_x35_0"/><g id="_x34_9"/><g id="_x34_8"/><g id="_x34_7"/><g id="_x34_6"/><g id="_x34_5"/><g id="_x34_4"/><g id="_x34_3"/><g id="_x34_2"/><g id="_x34_1"/><g id="_x34_0"/><g id="_x33_9"/><g id="_x33_8"/><g id="_x33_7"/><g id="_x33_6"/><g id="_x33_5"/><g id="_x33_4"/><g id="_x33_3"/><g id="_x33_2"/><g id="_x33_1"/><g id="_x33_0"/><g id="_x32_9"/><g id="_x32_8"/><g id="_x32_7"/><g id="_x32_6"/><g id="_x32_5"/><g id="_x32_4"/><g id="_x32_3"/><g id="_x32_2"/><g id="_x32_1"/><g id="_x32_0"/><g id="_x31_9"/><g id="_x31_8"/><g id="_x31_7"/><g id="_x31_6"/><g id="_x31_5"/><g id="_x31_4"/><g id="_x31_3"/><g id="_x31_2"/><g id="_x31_1"/><g id="_x31_0"/><g id="_x30_9"/><g id="_x30_8"/><g id="_x30_7"/><g id="_x30_6"/><g id="_x30_5"/><g id="_x30_4"/><g id="_x30_3"/><g id="_x30_2"/><g id="_x30_1"/><g id="Layer_2"><g><g><g><g><g><path d="m420.7 373.4-118.1-30.6v-74.2h-71.5v74.2l-118.1 30.6c-30.3 12.8-49.9 42.5-49.9 75.4v41.2c0 10.2 8.3 18.5 18.5 18.5h370.6c10.2 0 18.5-8.3 18.5-18.5v-41.2c-.1-32.9-19.7-62.6-50-75.4z" fill="#f8ddb2"/></g><g><path d="m93.1 508.4v-41.2c0-32.9 19.6-62.5 49.9-75.4l90.6-23.5c16.2-4.2 27.5-18.8 27.5-35.5v-64.2h-30.1v74.2l-118 30.6c-30.3 12.8-49.9 42.5-49.9 75.4v41.2c0 10.2 8.3 18.5 18.5 18.5z" fill="#e2bc93"/></g><g><g><g><path d="m145 77.2v86.4h45.8 76 121.8v-57.7c0-29-12.1-55.2-31.4-73.8h-167.1c-24.9 0-45.1 20.2-45.1 45.1z" fill="#854432"/></g><g><path d="m134.6 172.1c0 36 17.1 42.6 26.6 42.6 12.1 0 22.1-13.2 22.1-34.2s-.3-35.6-12.1-38c-19.3-3.9-36.6 8.6-36.6 29.6z" fill="#e2bc93"/></g><g><path d="m399.2 172.1c0 36-17.1 42.6-26.6 42.6-12.1 0-22.1-13.2-22.1-34.2s.3-35.6 12.1-38c19.2-3.9 36.6 8.6 36.6 29.6z" fill="#e2bc93"/></g></g><path d="m331.5 97.8h-107.5l-47.2 38.7-11.3.8v-39.5-18.1c0-42.1 34.1-76.2 76.2-76.2h140.7c5.9 0 10.7 4.8 10.7 10.7v22.3c-.2 33.9-27.7 61.3-61.6 61.3z" fill="#995241"/><path d="m192.6 97.8v-29.3c0-35.9 29.1-64.9 64.9-64.9h-16c-42.1 0-76.2 34.1-76.2 76.2v18.1 39.5l11.3-.8 15.9-13v-25.8z" fill="#854432"/><path d="m207 97.8c-25.3 0-45.8 28.9-45.8 54.2v70.4c0 30.6 13.3 59.7 36.4 79.7 39.7 34.5 98.8 34.5 138.6 0 23.1-20.1 36.4-49.2 36.4-79.7v-70.4c0-25.3-20.5-54.2-45.8-54.2z" fill="#f8ddb2"/><path d="m294.2 110.7c8.2 5.8 22.2 13.5 43.7 19.6 10.8 3 18.4 12.7 18.5 24 .1 14.6.6 35.3 2.1 55.5 2 28.1-13.1 54.8-38.4 67.3-15.4 7.6-37 17.3-36.8 10.5 1.7-69.9 1.5-142.6 1.3-171.8-.1-5 5.5-7.9 9.6-5.1z" fill="#ffe5c0"/><path d="m224.8 302.2c-23.1-20.1-36.4-49.2-36.4-79.7v-70.5c0-25.3 20.5-54.2 45.8-54.2h-27.2c-25.3 0-45.8 28.9-45.8 54.2v70.4c0 30.6 13.3 59.7 36.4 79.7 23.5 20.4 53.8 28.8 82.9 25-20.1-2.5-39.5-10.8-55.7-24.9z" fill="#e2bc93"/><path d="m359.3 251.6c-4.1 6.6-18.4 9.7-25 5.7-16.7-10.1-40.7-16.5-67.4-16.5-26.7 0-50.7 6.4-67.4 16.5-6.6 4-20.9.9-25-5.7-6.5-10.5-13.2-29.2-13.2-29.2 0 30.6 13.3 59.7 36.4 79.7 19.9 17.3 44.6 25.9 69.3 25.9 24.7 0 49.4-8.6 69.3-25.9 23.1-20.1 36.4-49.2 36.4-79.7-.2 0-6.9 18.7-13.4 29.2z" fill="#854432"/><path d="m224.8 302.2c-13.6-11.8-23.8-26.8-29.9-43.3-7.2 1.2-17.2-1.9-20.5-7.3-6.5-10.5-13.2-29.2-13.2-29.2 0 30.6 13.3 59.7 36.4 79.7 19.9 17.3 44.6 25.9 69.3 25.9 4.5 0 9.1-.3 13.6-.9-20.1-2.5-39.5-10.8-55.7-24.9z" fill="#703326"/></g></g><g><g><g><g><path d="m215.1 194c-6.6 0-11.9-5.4-11.9-11.9 0-6.6 5.4-11.9 11.9-11.9 6.6 0 11.9 5.4 11.9 11.9s-5.3 11.9-11.9 11.9z" fill="#e2bc93"/><circle cx="215.1" cy="182.1" fill="#293e68" r="9.9"/></g></g><g><g><path d="m318.6 194c-6.6 0-11.9-5.4-11.9-11.9 0-6.6 5.4-11.9 11.9-11.9 6.6 0 11.9 5.4 11.9 11.9.1 6.5-5.3 11.9-11.9 11.9z" fill="#e2bc93"/><circle cx="318.6" cy="182.1" fill="#293e68" r="9.9"/></g></g></g><g><path d="m282.9 216.3-14.7-29.8c-1.1-2.2-4.4-1.5-4.5 1l-.4 31.4c0 3.9 3.1 7.2 7.1 7.2h6.4c5-.1 8.3-5.3 6.1-9.8z" fill="#e2bc93"/><g><g><path d="m237.8 270.4h58.2c6 0 9.9 6.3 7.2 11.6-4.9 9.6-15.2 21.6-35.9 21.6-22.4 0-32.4-12.3-36.8-21.9-2.4-5.3 1.5-11.3 7.3-11.3z" fill="#fb6a63"/></g></g><path d="m266.9 291.9c-8.5 0-16 2.7-20.9 6.8 5.4 2.9 12.3 4.8 21.2 4.8 8.4 0 15.1-2 20.4-5-4.8-4-12.3-6.6-20.7-6.6z" fill="#ff4343"/><path d="m240.9 280.9h52c3.8 0 6.9-3.1 6.9-6.9v-2.6c-1.1-.6-2.4-1-3.9-1h-58.2c-1.4 0-2.7.4-3.8 1v2.6c0 3.8 3.1 6.9 7 6.9z" fill="#fff5ee"/></g></g><g fill="#eef6ff"><path d="m212.3 182.7c-1.8 0-3.2-1.4-3.2-3.2s1.4-3.2 3.2-3.2 3.2 1.4 3.2 3.2-1.4 3.2-3.2 3.2z"/><path d="m317.8 182.7c-1.8 0-3.2-1.4-3.2-3.2s1.4-3.2 3.2-3.2 3.2 1.4 3.2 3.2-1.4 3.2-3.2 3.2z"/></g></g><g><path d="m420.7 373.4-98.4-25.5c-7.7 20.9-27.8 35.7-51.3 35.7h-8.3c-23.5 0-43.6-14.9-51.3-35.7l-98.4 25.5c-30.3 12.8-49.9 42.5-49.9 75.4v41.2c0 10.2 8.3 18.5 18.5 18.5h370.6c10.2 0 18.5-8.3 18.5-18.5v-41.2c-.1-32.9-19.7-62.6-50-75.4z" fill="#ebe8db"/></g><path d="m261.5 396.2h10.6c29.6 0 54.9-18.4 65.1-44.5l-14.9-3.9c-7.7 20.9-27.8 35.7-51.3 35.7h-8.3c-23.5 0-43.6-14.9-51.3-35.7l-14.9 3.9c10.1 26.1 35.4 44.5 65 44.5z" fill="#fffffd"/><path d="m192.8 326.5c-8.4 3.9 1.6 16.8 5.6 24.8l-85.4 22.1c-30.3 12.8-49.9 42.5-49.9 75.4v41.2c0 10.2 8.3 18.5 18.5 18.5h117.3c0-.1 0-.1 0-.2-9.5-143.6 32.3-165.4 32.3-165.4v-14.8z" fill="#3d5262"/><path d="m93.1 467.1c0-32.9 19.6-62.5 49.9-75.4l67.3-17.4c9.5-25.7 20.7-31.5 20.7-31.5v-14.8l-38.2-1.6c-8.4 3.9 1.6 16.8 5.6 24.8l-85.4 22.2c-30.3 12.8-49.9 42.5-49.9 75.4v41.2c0 10.2 8.3 18.5 18.5 18.5h11.6s0 0 0-.1v-41.3z" fill="#2b404c"/><path d="m340.7 326.5c8.4 3.9-1.6 16.8-5.6 24.8l85.4 22.1c30.3 12.8 49.9 42.5 49.9 75.4v41.2c0 10.2-8.3 18.5-18.5 18.5h-117.2c0-.1 0-.1 0-.2 9.5-143.6-32.3-165.4-32.3-165.4v-14.8z" fill="#3d5262"/><path d="m231.1 342.8v-14.8l-38.2-1.6c-8.4 3.9 1.6 16.8 5.6 24.8 0 0-36.8 11.9-31.9 34.2 4.2 19.4 15.1 101.7 17.9 122.9h14.4c0-.1 0-.1 0-.2-9.6-143.5 32.2-165.3 32.2-165.3z" fill="#2b404c"/><path d="m302.5 342.8v-14.8l38.2-1.6c8.4 3.9-1.6 16.8-5.6 24.8 0 0 36.8 11.9 31.9 34.2-4.2 19.4-15.1 101.7-17.9 122.9h-14.4c0-.1 0-.1 0-.2 9.5-143.5-32.2-165.3-32.2-165.3z" fill="#2b404c"/><g fill="#293e68"><path d="m304.6 168.5c.5-.6 13.4-13.5 31.6.3.6.4 1.2.6 1.8.6.9 0 1.8-.4 2.4-1.2 1-1.3.8-3.3-.6-4.3-18.1-13.8-33.9-5.8-39.7.3-1.2 1.2-1.1 3.1.1 4.3 1.3 1.2 3.2 1.2 4.4 0z"/><path d="m195.7 169.4c.6 0 1.3-.2 1.8-.6 18.2-13.8 31-.9 31.6-.3 1.2 1.2 3.1 1.3 4.3.1s1.3-3.1.1-4.3c-5.8-6.1-21.6-14.1-39.7-.3-1.3 1-1.6 2.9-.6 4.3.7.7 1.6 1.1 2.5 1.1z"/><path d="m279.7 217.9c.7 1.4.1 2.6-.2 3.1s-1.1 1.5-2.7 1.5h-6.4c-2 0-3.6 1.6-3.6 3.6s1.6 3.6 3.6 3.6h6.4c3.6 0 6.9-1.8 8.8-4.9 1.9-3 2.1-6.8.5-10l-14.7-29.8c-.9-1.8-3-2.5-4.8-1.6s-2.5 3-1.6 4.8z"/><path d="m306.3 283.6c1.8-3.6 1.7-7.8-.4-11.2s-5.7-5.5-9.7-5.6c-.1 0-.1 0-.2 0h-58.2c-4 0-7.6 2-9.7 5.3s-2.4 7.4-.8 11c4.1 8.9 14.7 24 40 24 22.2 0 33.4-12.8 39-23.5zm-68.8-9.6h.2 58.2.3c0 1.9-1.5 3.4-3.4 3.4h-52c-1.8-.1-3.3-1.6-3.3-3.4zm-2.7 8.5c1.7 1.2 3.8 1.9 6 1.9h52c2.1 0 4.1-.6 5.8-1.7-5 8.4-14.3 17.3-31.4 17.3-18.5 0-27.8-9-32.4-17.5z"/><path d="m422 370.1c-.2-.1-.3-.1-.5-.2l-81-21c.2-.3.4-.6.5-.9 3.7-6.4 7.9-13.7 6.1-19.5-.7-2.4-2.4-4.2-4.9-5.4-.5-.2-1.1-.4-1.7-.3l-34.5 1.5c11.8-4.5 22.8-11.1 32.4-19.5 23.9-20.7 37.6-50.7 37.6-82.3v-.1-4.4c4.5-.6 10.7-2.7 16-8.7 7.1-7.9 10.7-20.4 10.7-37.1 0-10.4-3.9-19.3-10.5-25.3v-40.9c0-11.9-2-23.6-5.8-34.8 6.4-10 10-21.9 10-34.7v-22.3c0-7.8-6.4-14.2-14.2-14.2h-140.6c-25 0-47.4 11.6-62 29.7-22.2 4.9-38.1 24.6-38.1 47.5v69.6c-6.5 6-10.4 14.9-10.4 25.3 0 16.7 3.6 29.2 10.7 37.1 5.3 6 11.5 8.1 16 8.7v4.4.1c0 31.6 13.7 61.6 37.6 82.3 9.7 8.4 20.7 15 32.5 19.5l-34.7-1.5c-.6 0-1.1.1-1.7.3-2.4 1.1-4.1 3-4.9 5.4-1.8 5.7 2.4 13 6.1 19.5.2.3.4.6.5.9l-81 21c-.2 0-.3.1-.5.2-31.6 13.4-52.1 44.3-52.1 78.6v41.4c0 12.1 9.9 22 22 22h370.4c12.1 0 22-9.9 22-22v-41.2c0-34.4-20.4-65.3-52-78.7zm-35.2-218.6c5.5 4.8 8.8 12 8.8 20.5 0 30.3-12.4 37.2-19.6 38.7v-58.7c0-2-.1-4-.4-6 3.9.9 7.5 2.6 10.4 4.9.3.3.5.5.8.6zm-12.5-12.9c-3.9-15.8-14.2-31.1-28-38.9 13.8-3.2 26-10.9 34.9-21.5 2.6 9 3.9 18.2 3.9 27.7v36c-3.2-1.7-6.8-2.8-10.8-3.3zm-132.7-131.5h140.7c3.9 0 7.1 3.2 7.1 7.1v22.3c0 31.9-25.9 57.8-57.8 57.8h-124.6c-15.5 0-29.1 9.7-38.1 22.9v-37.5c.1-40 32.6-72.6 72.7-72.6zm-83.9 144.9v58.7c-18-3.1-19.5-30.1-19.5-38.7 0-13.2 8-23.4 19.9-26-.3 2.1-.4 4.1-.4 6zm4.2-21.3c-1 2.6-1.8 5.2-2.5 7.9-3.9.5-7.5 1.6-10.8 3.3v-64.7c0-16.5 9.8-31.2 24.3-37.8-7 11.8-11 25.6-11 40.3zm2.9 21.3c0-22.9 18.9-50.7 42.3-50.7h119.6c23.4 0 42.3 27.7 42.3 50.7v69.8c-1.2 3.2-7.1 18.9-12.7 28-3 4.9-15 7.6-20.1 4.6-17.8-10.8-43.1-17-69.3-17s-51.5 6.2-69.3 17c-5.1 3.1-17.1.3-20.1-4.6-5.6-9.1-11.5-24.8-12.7-28zm35.1 147.5c-16.1-13.9-27.2-32.4-32.2-52.6 1.2 2.4 2.4 4.6 3.7 6.6 3.5 5.6 12.4 9.2 20.3 9.2 3.6 0 6.9-.7 9.5-2.3 16.7-10.2 40.7-16 65.6-16 25 0 48.9 5.8 65.6 16 8.4 5.1 24.8 1.3 29.9-6.9 1.2-2 2.5-4.3 3.7-6.6-5 20.3-16.1 38.7-32.2 52.6-18.6 16.1-42.3 25-66.9 25s-48.4-8.9-67-25zm32.9 46.5c1.2-.6 1.9-1.8 1.9-3.1v-14.8c0-.5-.1-1-.3-1.4 10.4 3.3 21.4 4.9 32.5 4.9 11 0 21.9-1.7 32.3-4.9-.2.4-.3.9-.3 1.3v14.8c0 1.3.7 2.5 1.9 3.2.1.1 5.3 3 11.5 13.2-9.6 13.1-24.9 20.9-41.2 20.9h-8.3c-16.4 0-31.6-7.8-41.3-20.9 6-10.1 11.1-13.1 11.3-13.2zm-151.3 158.9c-8.2 0-14.9-6.7-14.9-14.9v-41.2c0-31.4 18.6-59.6 47.5-72l58.7-15.2c-8.3 7.4-11.7 15.9-9.8 24.7 4 18.3 14.2 95 17.3 118.6zm106 0c-3.5-27.1-13.5-101.6-17.5-120.1-4.1-18.9 29.2-30 29.5-30.1.7-.2 1.3-.6 1.7-1.2s0 0 .1-.1 0 0 0-.1 0 0 0-.1 0 0 0-.1c0-.1.1-.1.1-.2s0 0 0-.1 0 0 0-.1 0 0 0-.1v-.1c.2-.5.3-1.2.3-1.8s0 0 0-.1 0 0 0-.1 0 0 0-.1c0-.2-.1-.4-.2-.6s0 0 0-.1c0-.1-.1-.1-.1-.2-.8-1.6-1.8-3.3-2.8-5.1-2.5-4.4-6.3-11-5.5-13.8 0-.1.1-.4.5-.7l33.8 1.4v9.4c-8.4 6.2-40.1 38.5-32.5 164h-7.4zm143.9 0h-129.3c-4.3-70.5 4.1-109.9 12.1-130.7 1.2-3 2.3-5.8 3.5-8.2 11 13.4 27.4 21.2 45 21.2h8.3c17.5 0 33.9-7.8 44.9-21.1 10 20.7 20.3 61.3 15.5 138.8zm7.1 0c7.7-125.5-24.1-157.7-32.5-164v-9.4l33.8-1.4c.4.3.4.5.5.7.9 2.8-3 9.4-5.5 13.8-1 1.8-2 3.5-2.8 5.1 0 .1-.1.2-.1.2v.1c-.1.2-.1.4-.2.6v.1.1.1c-.1.6 0 1.2.3 1.8v.1.1.1.1c0 .1.1.1.1.2v.1.1.1s0 0 .1.1c.4.5 1 1 1.7 1.2.3.1 33.7 11.1 29.5 30.1-4 18.6-14 93-17.6 120.1h-7.3zm128.4-14.9c0 8.2-6.7 14.9-14.9 14.9h-98.8c3.1-23.6 13.3-100.3 17.3-118.6 1.9-8.8-1.4-17.3-9.8-24.7l58.7 15.2c28.9 12.4 47.5 40.6 47.5 72z"/></g></g><path d="m269.6 17h107.7s11.5 48.4-29.5 61.6-125.2 9.1-127 8.4c-1.7-.7 27.4-3 43.3-25.4s-3.7-36.5 5.5-44.6z" fill="#a35d50"/></g></g></svg>