<svg enable-background="new 0 0 512 512" viewBox="0 0 512 512" xmlns="http://www.w3.org/2000/svg"><g id="Layer_31" display="none"><g display="inline"><g><g fill="none" stroke-miterlimit="10"><g stroke="#9d9d9d"><ellipse cx="256" cy="256" rx="248.1" ry="248.3"/><path d="m398.8 504.5h-285.6c-18.8 0-34.1-15.3-34.1-34.1v-428.8c0-18.8 15.3-34.1 34.1-34.1h285.5c18.8 0 34.1 15.3 34.1 34.1v428.9c.1 18.8-15.2 34-34 34z"/><path d="m7.9 399.8v-287.6c0-16.4 13.3-29.8 29.8-29.8h436.7c16.4 0 29.8 13.3 29.8 29.8v287.6c0 16.4-13.3 29.8-29.8 29.8h-436.8c-16.4 0-29.7-13.4-29.7-29.8z"/><path d="m440.4 469.9h-368.8c-16.4 0-29.8-13.3-29.8-29.8v-368.2c0-16.4 13.3-29.8 29.8-29.8h368.8c16.4 0 29.8 13.3 29.8 29.8v368.2c0 16.4-13.4 29.8-29.8 29.8z"/></g><path d="m7.5 7.5h497v497h-497z" stroke="#d71c24" transform="matrix(0 1 -1 0 512 0)"/></g></g></g></g><g id="_x35_0" display="none"/><g id="_x34_9"/><g id="_x34_8"/><g id="_x34_7"/><g id="_x34_6"/><g id="_x34_5"/><g id="_x34_4"/><g id="_x34_3"/><g id="_x34_2"/><g id="_x34_1"/><g id="_x34_0"/><g id="_x33_9"/><g id="_x33_8"/><g id="_x33_7"/><g id="_x33_6"/><g id="_x33_5"/><g id="_x33_4"/><g id="_x33_3"/><g id="_x33_2"/><g id="_x33_1"/><g id="_x33_0"><g><g><g><g><g><g><g><g><g><g><g><g><g><g><g><g><path d="m396.9 372.8-105-26.4v-78.9h-72v78.9l-104.9 26.5c-39.3 9.9-68 44.6-69.1 85.2v2.7 27.6c0 11.1 9 20.1 20.1 20.1l380-.2c11.1 0 20.1-9 20.1-20.1v-27.6c0-.9 0-1.8 0-2.7-1.2-40.6-29.8-75.2-69.2-85.1z" fill="#f8ddb2"/><g><path d="m248.7 431.2c2.8 6.3 11.8 6.3 14.6 0l25.9-58.5c-10.6 2.2-21.9 3.3-33.6 3.3-11.4 0-22.5-1.1-32.8-3.2z" fill="#ebf1f4"/></g><g><path d="m76.2 503.1v-27.6c0-.9 0-1.8 0-2.7 1.1-40.6 29.7-75.2 69.1-85.2l88.9-22.5c9.4-2.4 16-10.9 16-20.6v-77.2h-30.3v78.9l-104.9 26.7c-39.3 9.9-68 44.6-69.1 85.2v2.7 27.6c0 11.1 9 20.1 20.1 20.1h11c-.5-1.8-.8-3.5-.8-5.4z" fill="#e2c29c"/></g></g><g fill="#ebf1f4"><path d="m452.9 413.9c.2.4.5.8.7 1.2-.2-.4-.4-.8-.7-1.2z"/><path d="m456.1 419.6c.3.5.5 1 .8 1.5-.3-.5-.5-1-.8-1.5z"/><path d="m454.6 416.7c.3.4.5.9.7 1.3-.2-.4-.5-.9-.7-1.3z"/><path d="m457.6 422.5c.4.8.8 1.6 1.1 2.5-.4-.9-.7-1.7-1.1-2.5z"/><path d="m451.5 411.6c.2.2.3.5.5.7-.2-.3-.4-.5-.5-.7z"/><path d="m466.1 457.9c0-1.2-.1-2.3-.2-3.5.1 1.2.1 2.3.2 3.5z"/><path d="m459.3 426.5c.3.7.5 1.3.8 2-.2-.7-.5-1.4-.8-2z"/><path d="m442.6 400.1c.1.1.2.2.3.4-.1-.1-.2-.2-.3-.4z"/><path d="m446.5 404.7c.2.3.4.5.6.8-.2-.3-.4-.6-.6-.8z"/><path d="m444.5 402.3c.2.2.4.5.6.7-.2-.3-.4-.5-.6-.7z"/><path d="m448.4 407.2c.2.2.3.5.5.7-.1-.2-.3-.4-.5-.7z"/><path d=""/><path d="m461.3 431.7c-.2-.6-.4-1.2-.7-1.8.3.5.5 1.1.7 1.8z"/><path d="m434.5 392.3c-.1-.1-.3-.2-.4-.4.1.2.3.3.4.4z"/><path d="m436.7 394.2c-.1-.1-.1-.1-.2-.2.1.1.1.2.2.2z"/><path d="m432.1 390.3c-.1-.1-.2-.2-.3-.2.1 0 .2.1.3.2z"/><path d="m422.2 383.4c-.1 0-.1-.1-.2-.1.1 0 .2.1.2.1z"/><path d="m419.6 381.9c-.1-.1-.2-.1-.3-.2.1.1.2.1.3.2z"/><path d="m464.3 442.8c-.2-1.1-.5-2.2-.7-3.3.3 1.1.5 2.2.7 3.3z"/><path d="m465.4 449.7c-.1-.7-.2-1.5-.3-2.2.1.7.2 1.4.3 2.2z"/><path d="m464.9 446.2c-.1-.8-.3-1.6-.4-2.4.2.8.3 1.6.4 2.4z"/><path d="m462.4 435c-.2-.6-.4-1.3-.6-1.9.2.6.4 1.2.6 1.9z"/><path d="m465.8 453.3c-.1-.8-.1-1.6-.2-2.4.1.8.1 1.6.2 2.4z"/><path d="m463.4 438.6c-.2-.8-.4-1.6-.6-2.4.2.8.4 1.6.6 2.4z"/><path d="m77.8 392.1c-.2.1-.3.3-.4.4.1-.1.3-.3.4-.4z"/><path d="m47 446.4c.1-.9.3-1.7.5-2.6-.2.9-.3 1.7-.5 2.6z"/><path d="m49.6 435.2c.2-.7.4-1.4.6-2-.2.6-.4 1.3-.6 2z"/><path d="m47.6 443c.2-1.1.5-2.2.7-3.3-.2 1.1-.4 2.2-.7 3.3z"/><path d="m48.6 438.8c.2-.8.4-1.6.6-2.4-.2.8-.4 1.6-.6 2.4z"/><path d="m51.8 428.7c.3-.7.6-1.5.9-2.2-.3.7-.6 1.4-.9 2.2z"/><path d="m50.7 431.9c.2-.7.5-1.3.7-2-.3.7-.5 1.3-.7 2z"/><path d="m46.5 449.8c.1-.8.2-1.5.3-2.3-.1.8-.2 1.6-.3 2.3z"/><path d="m446 508.2c2.1 0 4.1-.3 6-.9-1.9.6-3.9.9-6 .9z"/><path d="m45.9 458.1v2.7c0-.9 0-1.8 0-2.7z"/><path d="m45.9 457.8c0-1.1.1-2.2.2-3.3-.1 1.2-.1 2.2-.2 3.3z"/><path d="m46.2 453.5c.1-.8.1-1.6.2-2.4-.1.8-.1 1.6-.2 2.4z"/><path d="m53.2 425.3c.4-.9.8-1.8 1.2-2.6-.4.8-.8 1.7-1.2 2.6z"/><path d="m69 400.7c.1-.1.3-.3.4-.4-.1.1-.3.2-.4.4z"/><path d="m66.9 403.2c.2-.3.4-.5.7-.8-.3.2-.5.5-.7.8z"/><path d="m75.5 394.2c-.1.1-.2.2-.3.3z"/><path d="m92.6 381.9c-.1.1-.2.1-.3.2.1-.1.2-.2.3-.2z"/><path d="m89.9 383.5c-.1 0-.1.1-.2.1 0-.1.1-.1.2-.1z"/><path d="m80.2 390.2c-.1.1-.2.2-.3.2 0 0 .2-.1.3-.2z"/><path d="m58.3 415.3c.3-.4.5-.9.8-1.3-.3.4-.6.9-.8 1.3z"/><path d="m55 421.3c.3-.5.5-1.1.8-1.6-.2.5-.5 1.1-.8 1.6z"/><path d="m56.6 418.2c.3-.5.5-1 .8-1.4-.3.5-.5 1-.8 1.4z"/><path d="m62.9 408.2.6-.9c-.2.4-.4.7-.6.9z"/><path d="m60 412.5.6-.9c-.2.3-.4.6-.6.9z"/><path d="m64.8 405.7c.2-.3.5-.6.7-.9-.2.3-.5.6-.7.9z"/></g></g></g></g></g></g></g><path d="m466.1 460.6c0-.9 0-1.8 0-2.8-1.1-40.5-29.8-75.1-69.2-85l-105-26.4-29.6 66.7c-2.5 5.6-10.4 5.6-12.8 0l-29.6-66.7-104.9 26.5c-39.3 9.9-68 44.5-69.1 85.1v2.8 27.6c0 11.1 9 20.1 20.1 20.1l380-.2c11.1 0 20.1-9 20.1-20.1z" fill="#00b1c3"/><path d="m76.2 475.6c0-.9 0-1.8 0-2.7 1.1-40.6 29.7-75.2 69.1-85.2l83.6-21.1-9-20.2-104.9 26.5c-39.3 9.9-68 44.5-69.1 85.1v2.8 27.6c0 11.1 9 20.1 20.1 20.1h11c-.5-1.7-.7-3.5-.7-5.3z" fill="#00a0a0"/></g></g><path d="m291.9 346.4 23.3 5.9-1.1 37.8c-.5 17.6-16.8 30.4-34 26.8l-17.8-3.8z" fill="#05c7d1"/><path d="m219.9 346.4-23.3 5.9 1.1 37.8c.5 17.6 16.8 30.4 34 26.8l17.8-3.8z" fill="#05c7d1"/><path d="m196.6 352.3.7 22.3 31.6-8-9-20.2z" fill="#00b1c3"/><path d="m341.1 368.2s56.2 10.4 81.2 36.1 22.3 90.6 22.3 90.6l-125.7.1s50.8-30.6 46.8-52.1c-3.9-21.5-10.9-25.4-10.9-25.4s18.1-36-13.7-49.3z" fill="#02b8c1"/></g><g><g><path d="m278.9 3.6h-46c-57.2 0-103.6 46.4-103.6 103.7v63.7h46.4l160.6-.1h46.4v-63.7c-.2-57.3-46.6-103.6-103.8-103.6z" fill="#485e6b"/><path d="m263 3.6h-30.2c-57.2 0-103.6 46.4-103.6 103.7v63.7h30.2v-63.7c0-57.3 46.3-103.7 103.6-103.7z" fill="#324754"/><g><g><g><g><g><g><g><g><g><g><g><path d="m394.2 183.7c0 18.9-18.2 43.8-31.3 43.9-13.1 0-21.5-15.3-21.5-34.2s.3-32.1 13.2-34.3c20.8-3.6 39.6-3.2 39.6 24.6z" fill="#e2c29c"/><path d="m117.8 183.8c0 18.9 18.2 43.8 31.4 43.8 13.1 0 21.5-15.3 21.5-34.3s-.3-32.1-13.2-34.2c-20.9-3.5-39.7-3.1-39.7 24.7z" fill="#f8ddb2"/></g><g><path d="m343.9 137.8-25.8.2c-19.6.1-39-3.1-57.5-9.7l-61.5-21.7c-24.5-8.7-49.9 10.2-49.7 36.9l1 79c0 39.1 53.2 82.8 53.2 82.8 33.5 21 75.9 20.2 108.6-2.1 0 0 50.4-41.7 50.4-84.9l-1.3-63c-.2-9.8-7.9-17.6-17.4-17.5z" fill="#f8ddb2"/></g><g><path d="m234.6 305.3s-53.1-43.8-53.2-82.8l-1-79c-.1-16.2 9.3-29.6 22.2-35.6l-3.6-1.3c-24.5-8.7-49.9 10.2-49.7 36.9l1 79c0 39.1 53.2 82.8 53.2 82.8 20.8 13.1 45 17.7 68.2 14-12.8-2.1-25.5-6.7-37.1-14z" fill="#e2c29c"/></g></g></g></g></g></g></g></g></g></g></g></g><g><path d="m340.4 229.1-55.8-26.1c-18.9-8.9-40.9-8.9-59.8 0l-53.2 25v32.5c0 12.8 5.5 25.2 15.3 33.5.1 0 .1.1.2.1 37.5 37.5 98.9 37.5 136.4-.1 2.1-2 4-4.1 5.9-6.2 7.1-8 11-18.5 11-29.2z" fill="#ebf1f4"/><path d="m256.6 222.6s55.1 18.8 62.7 25.6-4 37.8-20.3 47.5c-16.3 9.8-42.3 10.2-42.3 10.2z" fill="#f2f9fc"/><path d="m215.6 294c-.1 0-.1-.1-.2-.1-9.8-8.3-15.3-20.6-15.3-33.5v-32.5l53.2-25c5-2.4 10.3-4.1 15.7-5.2-14.7-3-30.2-1.3-44.1 5.2l-53.2 25v32.5c0 12.8 5.5 25.2 15.3 33.5.1 0 .1.1.2.1 22.4 22.3 53.2 31.4 82.4 27-19.8-2.9-38.9-11.9-54-27z" fill="#dfe5e8"/><path d="m284.6 203c-18.9-8.9-40.9-8.9-59.8 0l-53.2 25v15.6l53.2-25c18.9-8.9 40.8-8.9 59.8 0l55.8 26.1v-15.6z" fill="#bfd7dd"/></g><g><g><g><g fill="#e2c29c"><path d="m201.1 192.6c-7 0-12.7-5.7-12.7-12.6 0-7 5.7-12.7 12.6-12.7 7 0 12.7 5.7 12.7 12.6.1 7-5.6 12.7-12.6 12.7z"/><path d="m310.9 192.5c-7 0-12.7-5.7-12.7-12.6 0-7 5.7-12.7 12.6-12.7 7 0 12.7 5.7 12.7 12.6 0 7-5.6 12.7-12.6 12.7z"/></g></g></g></g></g><path d="m254 23.2s61.8-4.1 87.4 29.7c25.6 33.7 20 71.6 20 71.6s-32.1 6.2-55.9-4.3-22.3-19.2-30.5-53.9c-8.3-34.9-21-43.1-21-43.1z" fill="#546a75"/></g></g></g><g><circle cx="366.7" cy="443.8" fill="#ebf1f4" r="41.2"/><path d="m385.1 436.6h-8.9c-1.2 0-2.2-1-2.2-2.2v-8.9c0-2.6-2.1-4.8-4.8-4.8h-4.9c-2.6 0-4.8 2.1-4.8 4.8v8.9c0 1.2-1 2.2-2.2 2.2h-8.9c-2.6 0-4.8 2.1-4.8 4.8v4.9c0 2.6 2.1 4.8 4.8 4.8h8.9c1.2 0 2.2 1 2.2 2.2v8.9c0 2.6 2.1 4.8 4.8 4.8h4.9c2.6 0 4.8-2.1 4.8-4.8v-8.9c0-1.2 1-2.2 2.2-2.2h8.9c2.6 0 4.8-2.1 4.8-4.8v-4.9c0-2.7-2.2-4.8-4.8-4.8z" fill="#5edda9"/></g></g><g fill="#023d51"><path d="m397.8 369.3-81.6-20.6-20.6-5.2v-26.3c20-8.8 36.6-25 42.5-35.5 14.6-17.7 23.6-34.8 26.8-50.8 15-2.1 33-27.3 33-47.3 0-12.8-3.9-21.5-11.6-26v-50.5c0-28.6-11.2-55.6-31.4-75.8-20.5-20.2-47.4-31.3-76-31.3 0 0 0 0-.1 0h-46c-28.6 0-55.6 11.2-75.8 31.4-20.2 20.3-31.4 47.2-31.4 75.8v50.6c-7.6 4.6-11.5 13.3-11.5 26 0 20.1 18.3 45.6 33.4 47.3 2.4 13.8 10.2 29.2 23.4 45.7 6.4 17.6 28.3 33.8 45.4 41v25.7l-20.6 5.2s0 0-.1 0l-81.5 20.6c-41.1 10.4-70.6 46.8-71.8 88.5-.1 2.5 0 1.6 0 30.4 0 13 10.6 23.6 23.7 23.6l380-.2c13.1 0 23.6-10.6 23.6-23.7 0-28.9 0-28-.1-30.4-1-41.4-30.6-77.8-71.7-88.2zm-86.2-14.3-1 35c-.2 7.3-3.6 14.1-9.4 18.6-5.7 4.5-13.2 6.3-20.3 4.7l-13.5-2.8 26.5-59.9zm-56.1 24.7c.1 0 .1 0 0 0 6.1 0 12.2-.3 18.2-1l-14.6 33c-.8 1.9-2.6 2-3.1 2s-2.3-.1-3.1-2l-14.6-32.9c5.7.6 11.5.9 17.2.9zm-20.6-8.5-11.3-25.5v-25.1c21.3 7.1 44.1 6.8 64.8-.4v25.5l-11.3 25.5c-7.1.9-14.3 1.4-21.5 1.4h-.1c-6.8-.1-13.8-.6-20.6-1.4zm123.4-144.2c-1.9 12.4-7.8 24.5-14.4 34.8.1-1.1.1-2.1.1-3.2v-28.9l14.3-48.3.7 37c0 2.7-.3 5.6-.7 8.6zm22.8-63.9c8.5 3.9 9.5 13.6 9.5 20.6 0 16.2-14.2 36.2-24.7 39.7 0-.1 0-.1 0-.1 0-.6.1-1.1.1-1.7 0-.3 0-.6.1-.9 0-.8.1-1.7.1-2.5l-1.1-56.9c5.1-.4 11.2-.4 16 1.8zm-259.7 20.7c0-7 1-16.7 9.4-20.6 4.5-2.1 10.3-2.2 15.3-1.9.1 4.4.8 62.1.8 62.4-10.6-2.8-25.5-23.4-25.5-39.9zm24.5-40.3.1 10.7c-4.3-.2-9-.1-13.1.9v-47.7c0-26.7 10.4-51.9 29.3-70.8s44-29.3 70.7-29.3h46c26.7 0 51.8 10.4 70.7 29.3s29.3 44 29.3 70.7v47.7c-.1 0-.2 0-.3-.1-4.4-1-9.3-1-13.8-.7-.7-10.9-9.7-19.9-20.8-19.9h-.1l-25.8.2c-19.2.1-38.1-3-56.3-9.5l-61.5-21.7c-12.5-4.4-25.9-2.5-36.8 5.2-11.2 7.9-17.8 21-17.6 35zm8.3 83.7c-.4-3.7-.2-2-.8-44.9l14.6 46.3v31.9.4c-8-12.3-12.6-23.6-13.8-33.7zm-1-69.7-.2-14.1c-.1-11.6 5.4-22.5 14.6-29.1 8.9-6.4 20-8 30.3-4.3l61.5 21.7c18.9 6.7 38.7 10 58.7 9.9l25.8-.2h.1c7.4 0 13.6 6.2 13.7 14v2.2l-19.6 66.5-52-24.4c-20-9.4-42.9-9.3-62.8 0l-49.5 23.3zm24.4 116.6s0-.1-.1-.1c-1.5-4.3-2.3-8.9-2.3-13.6v-30.2l51.1-24c18-8.5 38.7-8.5 56.8 0l53.7 25.2v27.2c0 6.9-1.7 13.6-4.9 19.5v.1c-5.3 9.7-21.6 25.4-41 33.4-.2.1-.3.1-.5.2-52.4 21.2-103.7-12-112.8-37.7zm40.3 76.5 26.6 59.9-13.5 2.9c-7.2 1.5-14.6-.2-20.3-4.7-5.8-4.5-9.2-11.3-9.4-18.6l-1-35zm228.1 154.1-380 .2c-9.1 0-16.5-7.4-16.5-16.5 0-29.1 0-27.8 0-30.2 1-38.5 28.3-72.1 66.4-81.7l77.3-19.5 1 33.4c.3 9.4 4.7 18.2 12.1 24s17 8.1 26.2 6.1l15.4-3.3c2 2.4 4.9 3.7 8.1 3.7 3.2 0 6.1-1.4 8.1-3.7l15.4 3.3c11 2.3 22.4-1.3 30.1-9.7 5.1-5.6 8-12.8 8.2-20.5l.9-33.4 77.3 19.5c38 9.6 65.4 43.2 66.5 81.7.1 2.4 0 2.1.1 30.2-.1 9-7.4 16.4-16.6 16.4z"/><ellipse cx="201.1" cy="179.9" rx="10.5" ry="10.5" transform="matrix(.898 -.44 .44 .898 -58.624 106.758)"/><path d="m310.9 169.3c-5.8 0-10.5 4.7-10.5 10.5s4.7 10.5 10.5 10.5 10.5-4.7 10.5-10.5c0-5.7-4.7-10.5-10.5-10.5z"/><path d="m295.9 165.4c.6-.6 14.3-14.5 33.7.3 1.3 1 3.3.8 4.3-.6 1-1.3.8-3.3-.6-4.3-19.1-14.6-35.8-6.1-41.9.4-1.2 1.2-1.1 3.2.1 4.3 1.3 1.1 3.2 1.1 4.4-.1z"/><path d="m178.7 160.9c-1.3 1-1.6 3-.6 4.3.6.8 1.5 1.2 2.4 1.2.6 0 1.3-.2 1.9-.6 19.4-14.8 33.1-1 33.7-.3 1.2 1.2 3.1 1.3 4.3.1s1.3-3.1.1-4.3c-6.1-6.6-22.7-15-41.8-.4z"/><path d="m366.7 399c-24.7 0-44.8 20.1-44.8 44.8s20.1 44.8 44.8 44.8 44.8-20.1 44.8-44.8-20.1-44.8-44.8-44.8zm0 82.4c-20.7 0-37.6-16.9-37.6-37.6s16.9-37.6 37.6-37.6 37.6 16.9 37.6 37.6-16.9 37.6-37.6 37.6z"/><path d="m385.1 433h-7.6v-7.6c0-4.6-3.8-8.4-8.4-8.4h-4.9c-4.6 0-8.4 3.8-8.4 8.4v7.6h-7.6c-4.6 0-8.4 3.8-8.4 8.4v4.9c0 4.6 3.8 8.4 8.4 8.4h7.6v7.6c0 4.6 3.8 8.4 8.4 8.4h4.9c4.6 0 8.4-3.8 8.4-8.4v-7.6h7.6c4.6 0 8.4-3.8 8.4-8.4v-4.9c0-4.7-3.8-8.4-8.4-8.4zm1.2 13.2c0 .7-.5 1.2-1.2 1.2h-8.9c-3.2 0-5.8 2.6-5.8 5.8v8.9c0 .7-.5 1.2-1.2 1.2h-4.9c-.7 0-1.2-.5-1.2-1.2v-8.9c0-3.2-2.6-5.8-5.8-5.8h-8.9c-.7 0-1.2-.5-1.2-1.2v-4.9c0-.7.5-1.2 1.2-1.2h8.9c3.2 0 5.8-2.6 5.8-5.8v-8.9c0-.7.5-1.2 1.2-1.2h4.9c.7 0 1.2.5 1.2 1.2v8.9c0 3.2 2.6 5.8 5.8 5.8h8.9c.7 0 1.2.5 1.2 1.2z"/></g></g><g fill="#eef6ff"><path d="m198 179.8c-1.7 0-3.1-1.4-3.1-3.1s1.4-3.1 3.1-3.1 3.1 1.4 3.1 3.1-1.4 3.1-3.1 3.1z"/><path d="m308.5 179.7c-1.7 0-3.1-1.4-3.1-3.1s1.4-3.1 3.1-3.1 3.1 1.4 3.1 3.1-1.4 3.1-3.1 3.1z"/></g></g></g><g id="_x32_9"/><g id="_x32_8"/><g id="_x32_7"/><g id="_x32_6"/><g id="_x32_5"/><g id="_x32_4"/><g id="_x32_3"/><g id="_x32_2"/><g id="_x32_1"/><g id="_x32_0"/><g id="_x31_9"/><g id="_x31_8"/><g id="_x31_7"/><g id="_x31_6"/><g id="_x31_5"/><g id="_x31_4"/><g id="_x31_3"/><g id="_x31_2"/><g id="_x31_1"/><g id="_x31_0"/><g id="_x30_9"/><g id="_x30_8"/><g id="_x30_7"/><g id="_x30_6"/><g id="_x30_5"/><g id="_x30_4"/><g id="_x30_3"/><g id="_x30_2"/><g id="_x30_1"/><g id="Layer_2"/></svg>