<svg enable-background="new 0 0 512 512" viewBox="0 0 512 512" xmlns="http://www.w3.org/2000/svg"><g id="Layer_31" display="none"><g display="inline"><g fill="none" stroke-miterlimit="10"><g stroke="#9d9d9d"><ellipse cx="256" cy="256" rx="248.1" ry="248.3"/><path d="m398.8 504.5h-285.6c-18.8 0-34.1-15.3-34.1-34.1v-428.8c0-18.8 15.3-34.1 34.1-34.1h285.5c18.8 0 34.1 15.3 34.1 34.1v428.9c.1 18.8-15.2 34-34 34z"/><path d="m7.9 399.8v-287.6c0-16.4 13.3-29.8 29.8-29.8h436.7c16.4 0 29.8 13.3 29.8 29.8v287.6c0 16.4-13.3 29.8-29.8 29.8h-436.8c-16.4 0-29.7-13.4-29.7-29.8z"/><path d="m440.4 469.9h-368.8c-16.4 0-29.8-13.3-29.8-29.8v-368.2c0-16.4 13.3-29.8 29.8-29.8h368.8c16.4 0 29.8 13.3 29.8 29.8v368.2c0 16.4-13.4 29.8-29.8 29.8z"/></g><path d="m7.5 7.5h497v497h-497z" stroke="#d71c24" transform="matrix(0 1 -1 0 512 0)"/></g></g></g><g id="_x35_0"/><g id="_x34_9"/><g id="_x34_8"/><g id="_x34_7"/><g id="_x34_6"/><g id="_x34_5"/><g id="_x34_4"/><g id="_x34_3"/><g id="_x34_2"/><g id="_x34_1"/><g id="_x34_0"/><g id="_x33_9"/><g id="_x33_8"/><g id="_x33_7"/><g id="_x33_6"/><g id="_x33_5"/><g id="_x33_4"/><g id="_x33_3"/><g id="_x33_2"/><g id="_x33_1"/><g id="_x33_0"/><g id="_x32_9"/><g id="_x32_8"/><g id="_x32_7"/><g id="_x32_6"/><g id="_x32_5"/><g id="_x32_4"/><g id="_x32_3"/><g id="_x32_2"/><g id="_x32_1"/><g id="_x32_0"/><g id="_x31_9"/><g id="_x31_8"/><g id="_x31_7"/><g id="_x31_6"/><g id="_x31_5"/><g id="_x31_4"/><g id="_x31_3"/><g id="_x31_2"/><g id="_x31_1"/><g id="_x31_0"/><g id="_x30_9"/><g id="_x30_8"/><g id="_x30_7"/><g id="_x30_6"/><g id="_x30_5"/><g id="_x30_4"/><g id="_x30_3"/><g id="_x30_2"/><g id="_x30_1"/><g id="Layer_2"><g><g><g><g><g><g><path d="m399.6 374.9-107.7-23.1v-83.3h-71.7v83.3l-107.7 23.1c-24.1 5.2-44.8 20.8-55.8 42.9-6.4 13-10 27.7-10 43.1v27.5c0 11 9 20 20 20h378.6c11 0 20-9 20-20v-27.4c0-16.2-3.9-31.7-11-45.1-11.1-21.2-31.4-36-54.7-41z" fill="#3d5262"/></g><path d="m344.6 329.6c-1.6-40.9 51.9-50.2 51.9-177 0-129.5-124.9-148.8-139.2-149-.4 0-.8 0-1.3 0v.1c-.5 0-.9 0-1.3 0-14.3.2-139.2 19.5-139.2 149.1 0 126.8 53.5 136 51.9 177-1 24.6-41.8 19-68.5 49.4 0 0 77.8-4.1 132.3 50.3 6.9 6.9 15.8 10.3 24.8 10.3v-.1c9 0 17.9-3.4 24.8-10.3 54.5-54.4 132.3-50.3 132.3-50.3-26.7-30.5-67.5-24.9-68.5-49.5z" fill="#c2c2ff"/><g><g><path d="m181.9 96.2c-19.1 12.4-30.7 33.7-30.7 56.5v42.1c0 12.3 1.5 24.6 4.3 36.7 8 33.3 26.7 54.6 53.7 78.4l12.8 11.1c9.5 8.3 21.8 12.4 34 12.2 12.3.2 24.6-3.8 34-12.2l12.7-11.2c27-23.8 45.7-45.1 53.7-78.4 2.9-12 4.3-24.3 4.3-36.7v-42.1c0-22.8-11.6-44.1-30.7-56.5-45-29.1-103-29.1-148.1.1z" fill="#f8ddb2"/><path d="m252.1 321-12.7-11.2c-27-23.8-45.7-45.1-53.7-78.4-2.9-12-4.3-24.3-4.3-36.7v-42.1c0-22.8 11.6-44.1 30.7-56.5 18.1-11.8 38.4-18.8 59-21.1-30.7-3.4-62.2 3.6-89.2 21.1-19.1 12.4-30.7 33.7-30.7 56.5v42.1c0 12.3 1.5 24.6 4.3 36.7 8 33.3 26.7 54.6 53.7 78.4l12.8 11.2c9.5 8.3 21.8 12.4 34 12.2 5.1.1 10.2-.6 15.1-2-6.9-1.9-13.5-5.3-19-10.2z" fill="#e2bc93"/><path d="m171.2 141.1c51.6-33.4 118-33.4 169.6 0 7.9 5.1 20 11.5 20 11.5 0-22.8-11.6-44.1-30.7-56.5-45.1-29.1-103.1-29.1-148.2.1-19.1 12.4-30.7 33.7-30.7 56.5 0 0 12.1-6.5 20-11.6z" fill="#3d5262"/><path d="m181.9 113.1c45.1-29.2 103.1-29.2 148.2 0 13.9 9 23.8 22.6 28.2 38.1 1.6.9 2.6 1.4 2.6 1.4 0-22.8-11.6-44.1-30.7-56.5-45.2-29.1-103.2-29.1-148.3.1-19.1 12.4-30.7 33.7-30.7 56.5 0 0 1-.5 2.6-1.4 4.3-15.5 14.2-29.2 28.1-38.2z" fill="#2b404c"/></g><g><g><path d="m241.1 230.8c1.3 2.8 8.1 7.9 14.9 7.9s13.6-5 14.9-7.9l-8.8-27c-.5-1.7-3-1.2-2.9.5l.5 13.3c.3 6.9-5.1 12.6-11.9 12.9z" fill="#e2bc93"/></g><g><g><g><g><g><g><g><g><g><g><circle cx="199" cy="186.9" fill="#e2bc93" r="13.8"/><circle cx="199" cy="186.9" fill="#293e68" r="11.5"/><path d="m195.4 187.4c-1.9 0-3.5-1.5-3.5-3.5 0-1.9 1.5-3.5 3.5-3.5s3.5 1.5 3.5 3.5-1.6 3.5-3.5 3.5z" fill="#eef6ff"/></g></g></g></g></g></g></g><g><g><g><g><g><g><g><path d="m313 200.6c-7.6 0-13.8-6.2-13.8-13.8s6.2-13.8 13.8-13.8 13.8 6.2 13.8 13.8-6.2 13.8-13.8 13.8z" fill="#e2bc93"/><circle cx="313" cy="186.9" fill="#293e68" r="11.5"/><path d="m310 187.4c-1.9 0-3.5-1.5-3.5-3.5 0-1.9 1.5-3.5 3.5-3.5 1.9 0 3.5 1.5 3.5 3.5s-1.6 3.5-3.5 3.5z" fill="#eef6ff"/></g></g></g></g></g></g></g></g></g></g></g><path d="m273.4 281.7c0 4.2-9.6 14.3-16.9 14.3s-17.3-10.2-17.3-14.4 9.9-.8 17.3-.8 16.9-3.3 16.9.9z" fill="#fb6a63"/></g></g><path d="m134.4 382c26.8-30.3 62.1-19.4 63.1-43.9 1.6-40.9-51.9-50.2-51.9-177 0-129.6 116.4-157.5 111.7-157.5-.4 0-.8 0-1.3 0v.1c-.5 0-.9 0-1.3 0-14.3.2-139.2 19.5-139.2 149.1 0 126.8 53.5 136 51.9 177-1 24.6-41.8 19-68.5 49.4 0 0 14.6-.8 35.5 2.8z" fill="#a9a9f7"/><path d="m98.9 379.2c.1-.1.1-.1.2-.2-18.3 7.3-33.5 21-42.4 38.8-6.4 13-10 27.7-10 43.1v27.5c0 11 9 20 20 20h13.9c-2.4-3.3-3.8-7.3-3.8-11.7v-27.5c0-15.4 3.6-30.2 10-43.1 8.9-17.9 29.3-36.9 47.6-44.2-20.9-3.5-35.5-2.7-35.5-2.7z" fill="#2b404c"/></g><g fill="#293e68"><path d="m216.3 173c1.6.6 3.3-.3 3.9-1.9s-.3-3.3-1.9-3.9c-.8-.3-19.7-6.8-42.8 1.6-1.6.6-2.4 2.3-1.8 3.9.4 1.2 1.6 2 2.9 2 .3 0 .7-.1 1-.2 21-7.5 38.5-1.6 38.7-1.5z"/><path d="m295.7 173c.2-.1 17.7-6 38.7 1.6.3.1.7.2 1 .2 1.3 0 2.4-.8 2.9-2 .6-1.6-.2-3.3-1.8-3.9-23.1-8.3-42-1.9-42.8-1.6-1.6.6-2.4 2.3-1.9 3.9.6 1.5 2.3 2.3 3.9 1.8z"/><path d="m256 241.7c2.7 0 5.7-.7 8.6-2 6.2-2.8 9.1-10.3 6.3-16.6l-8.9-20.1c-.7-1.5-2.5-2.2-4-1.6-1.5.7-2.2 2.5-1.6 4l8.9 20.1c1.4 3.2 0 7.1-3.2 8.5-2.1.9-4.2 1.4-6 1.4-5.6 0-11.3-4.3-12.1-6.1-.7-1.5-2.5-2.2-4.1-1.5-1.5.7-2.2 2.5-1.5 4.1 1.8 4.1 9.5 9.8 17.6 9.8z"/><path d="m230.7 280.3c.5.2 11.5 5.6 25.3 5.6s24.9-5.3 25.3-5.6c1.8-.9 2.5-3 1.6-4.8s-3-2.5-4.8-1.6c-.1 0-10.1 4.8-22.2 4.8s-22.1-4.8-22.2-4.8c-1.8-.9-3.9-.1-4.8 1.6-.7 1.8 0 3.9 1.8 4.8z"/><path d="m265.3 291.4c-3.2.6-6.3.9-9.3.9s-6.1-.3-9.3-.9c-1.9-.4-3.8.9-4.2 2.8s.9 3.8 2.8 4.2c3.6.7 7.2 1.1 10.6 1.1s7-.4 10.6-1.1c1.9-.4 3.2-2.2 2.8-4.2-.2-1.9-2.1-3.1-4-2.8z"/><path d="m457.5 414.2c-9-17.1-23.9-30.6-42.2-38.1-13.2-14.7-29.5-21.2-42.7-26.5-15.3-6.1-24-10.1-24.4-20.2-.6-14 5.9-24 14.7-37.8 15.7-24.5 37.2-58 37.2-139 0-30.4-6.8-57.2-20.2-79.8-11-18.4-26.3-34-45.6-46.3-34.1-21.6-69.3-26.4-77-26.5-.4 0-.9 0-1.4 0-.2 0-.5 0-.7.1-.2 0-.4 0-.5 0-7.6.1-42.9 4.9-76.8 26.6-19.4 12.3-34.8 27.9-45.7 46.3-13.4 22.6-20.2 49.4-20.2 79.8 0 81 21.5 114.5 37.2 139 8.9 13.8 15.3 23.8 14.7 37.8-.3 6.8-1.5 11-24.4 20.2-13.1 5.2-29.3 11.7-42.5 26.3-19.1 7.8-34.5 22.1-43.5 40.2-6.8 13.7-10.3 29.1-10.3 44.7v27.5c0 13 10.6 23.6 23.6 23.6h378.6c13 0 23.6-10.6 23.6-23.6v-27.5c-.1-16.4-4.1-32.6-11.5-46.8zm-315.4-57.8c15.2-6.1 28.3-11.3 28.9-26.5.6-16.2-6.6-27.6-15.8-42-15.2-23.7-36-56.2-36-135.1 0-29.1 6.5-54.7 19.2-76.1 10.4-17.4 25-32.2 43.4-44 32.2-20.6 66.4-25.4 73-25.5h1.2c.4 0 .8 0 1.2-.2h.2c6.7.1 40.9 4.9 73.1 25.5 18.4 11.7 33 26.5 43.4 44 12.8 21.4 19.2 47 19.2 76.1 0 78.9-20.8 111.4-36 135.1-9.2 14.4-16.5 25.7-15.8 42 .6 15.2 13.7 20.4 28.9 26.5 11.2 4.5 23.7 9.5 34.6 19.2-8.3.3-21.8 1.3-37.9 4.8-44.3 9.7-72.5 30.7-88.4 46.5-6 6-13.9 9.2-22.3 9.2-.3 0-.6 0-.9.1-8.1-.2-15.6-3.5-21.4-9.2-28.8-28.7-63.9-41.2-88.4-46.5-16.1-3.6-29.7-4.6-37.9-4.8 10.7-9.7 23.2-14.6 34.5-19.1zm319.6 132c0 9.1-7.4 16.4-16.4 16.4h-378.6c-9.1 0-16.4-7.4-16.4-16.4v-27.4c0-14.5 3.3-28.9 9.6-41.6 8.2-16.5 22.1-29.5 39.4-36.7 4.9-.2 78.1-1.9 129.3 49.3 7.3 7.3 17 11.3 27.3 11.3.3 0 .7 0 1-.1 9.9-.2 19.3-4.2 26.3-11.3 50.2-50.1 121.6-49.5 129-49.3 16.8 6.9 30.6 19.3 38.8 34.9 6.9 13.2 10.6 28.2 10.6 43.4v27.5z"/><path d="m206.9 312.5 12.7 11.2c9.8 8.6 22.7 13.2 36.4 13h.9c13.3 0 25.9-4.6 35.5-13.1l12.7-11.2c27.8-24.5 46.7-46.5 54.8-80.3 2.9-12.3 4.4-24.9 4.4-37.5v-42.1c0-24.1-12.1-46.4-32.3-59.5-46.2-29.9-105.9-29.9-152.1 0-20.2 13.1-32.3 35.3-32.3 59.5v42.1c0 12.6 1.5 25.2 4.4 37.5 8.2 34 27.1 55.9 54.9 80.4zm-23.1-213.3c43.8-28.4 100.5-28.4 144.3 0 16.5 10.7 26.9 28.1 28.8 47.3-4.2-2.3-9.9-5.6-14.2-8.4-52.7-34.1-120.7-34.1-173.4 0-4.3 2.8-10.1 6.1-14.2 8.4 1.8-19.3 12.3-36.7 28.7-47.3zm-29.1 95.6v-40c3.8-2 12.3-6.7 18.4-10.7 50.3-32.6 115.4-32.6 165.7 0 6.1 4 14.6 8.7 18.4 10.7v40c0 12-1.4 24.1-4.2 35.8-5.7 23.7-16.5 44.8-52.6 76.6l-12.7 11.2c-8.5 7.5-19.7 11.5-31.6 11.3 0 0 0 0-.1 0s0 0-.1 0c-11.9.2-23.1-3.8-31.6-11.3l-12.7-11.2c-26.8-23.6-44.9-44.6-52.6-76.6-2.8-11.8-4.3-23.8-4.3-35.8z"/></g></g><path d="m326.8 305.9s-16 31.3-40.4 42.4c-24.4 11.2-49.1 10.7-43.9 37.4s11.1 47.8 30.9 22 81.6-38.9 81.6-38.9-41.4-25.5-28.2-62.9z" fill="#d2d2ff"/></g><path d="m268.2 19.7s47.3 6.1 70.2 31.6 33.1 60.9 33.1 60.9-32.5-53.3-86-53.3-82.9 12.7-75 0 18-43.8 57.7-39.2z" fill="#d2d2ff"/></g></g></svg>