<svg enable-background="new 0 0 512 512" viewBox="0 0 512 512" xmlns="http://www.w3.org/2000/svg"><g id="Layer_31" display="none"><g display="inline"><g fill="none" stroke-miterlimit="10"><g stroke="#9d9d9d"><ellipse cx="256" cy="256" rx="248.1" ry="248.3"/><path d="m398.8 504.5h-285.6c-18.8 0-34.1-15.3-34.1-34.1v-428.8c0-18.8 15.3-34.1 34.1-34.1h285.5c18.8 0 34.1 15.3 34.1 34.1v428.9c.1 18.8-15.2 34-34 34z"/><path d="m7.9 399.8v-287.6c0-16.4 13.3-29.8 29.8-29.8h436.7c16.4 0 29.8 13.3 29.8 29.8v287.6c0 16.4-13.3 29.8-29.8 29.8h-436.8c-16.4 0-29.7-13.4-29.7-29.8z"/><path d="m440.4 469.9h-368.8c-16.4 0-29.8-13.3-29.8-29.8v-368.2c0-16.4 13.3-29.8 29.8-29.8h368.8c16.4 0 29.8 13.3 29.8 29.8v368.2c0 16.4-13.4 29.8-29.8 29.8z"/></g><path d="m7.5 7.5h497v497h-497z" stroke="#d71c24" transform="matrix(0 1 -1 0 512 0)"/></g></g></g><g id="_x35_0" display="none"/><g id="_x34_9"/><g id="_x34_8"/><g id="_x34_7"/><g id="_x34_6"/><g id="_x34_5"/><g id="_x34_4"/><g id="_x34_3"/><g id="_x34_2"/><g id="_x34_1"/><g id="_x34_0"/><g id="_x33_9"/><g id="_x33_8"/><g id="_x33_7"/><g id="_x33_6"/><g id="_x33_5"/><g id="_x33_4"/><g id="_x33_3"/><g id="_x33_2"/><g id="_x33_1"/><g id="_x33_0"><g><g><g><path d="m420.3 274.1c-14.9-13.4-34.7-44.5-34.7-116 0-78.1-63.4-139.6-131.3-139.8-68 .3-131.4 61.7-131.4 139.9 0 71.4-19.8 102.6-34.7 116-7.3 6.6-6.6 18.3 1.4 24.1 26.4 19.2 81.8 50.9 159.2 50.9 1.7 0 3.6-.1 5.5-.1 2 .1 3.8.1 5.5.1 77.4 0 132.7-31.7 159.2-50.9 7.9-5.9 8.6-17.6 1.3-24.2z" fill="#ff931a"/><path d="m119.2 298.2c-8-5.8-8.7-17.5-1.4-24.1 14.9-13.4 34.7-44.5 34.7-116 0-72.4 54.4-130.5 116.5-138.8-4.9-.7-9.8-1-14.8-1-67.9.3-131.3 61.7-131.3 139.9 0 71.4-19.8 102.6-34.7 116-7.3 6.6-6.6 18.3 1.4 24.1 26.4 19.2 81.8 50.9 159.2 50.9 1.7 0 3.6-.1 5.5-.1 2 .1 3.8.1 5.5.1 3.1 0 6.2-.1 9.3-.2-72.5-2.4-124.5-32.4-149.9-50.8z" fill="#ef8114"/><g><g><g><g><g><g><g><g><path d="m394.6 375.2-103.2-26v-77.6h-70.8v77.6l-103.2 26c-38.7 9.8-66.9 43.8-68 83.7v2.7 27.1c0 10.9 8.8 19.7 19.7 19.7h373.8c10.9 0 19.7-8.8 19.7-19.7v-27.1c0-.9 0-1.8 0-2.7-1-39.8-29.2-73.9-68-83.7z" fill="#f8ddb2"/><g><path d="m248.8 432.6c2.8 6.2 11.6 6.2 14.4 0l25.5-57.5c-10.4 2.1-21.5 3.3-33 3.3-11.2 0-22.1-1.1-32.3-3.1z" fill="#ebf1f4"/></g><g><path d="m79.1 503.3v-27.1c0-.9 0-1.8 0-2.7 1.1-39.9 29.3-74 68-83.7l87.5-22.1c9.3-2.3 15.8-10.7 15.8-20.2v-75.9h-29.8v77.6l-103.2 26c-38.7 9.8-66.9 43.8-68 83.7v2.7 27.1c0 10.9 8.8 19.7 19.7 19.7h10.8c-.5-1.6-.8-3.3-.8-5.1z" fill="#e2c29c"/></g><g><g><g><path d="m126.6 185.2c0 36.4 17.5 41.8 30.1 41.8s20.7-14.1 20.7-31.4-.3-29.4-12.7-31.4c-20-3.1-38.1 3.7-38.1 21z" fill="#e2c29c"/><path d="m153 212.6c-5.5 0-15.6 0-15.6-27.7 0-2.3.7-3.2 2-4.1 2.6-1.8 7-2.8 12.2-2.8 2 0 4.1.2 6.3.5.9 3.7.9 12.4.9 17.3 0 10.9-4.2 16.8-5.8 16.8z" fill="#f8ddb2"/></g></g><g><g><path d="m385.4 185.2c0 36.4-17.5 41.8-30.1 41.8s-20.7-14.1-20.7-31.4.3-29.4 12.7-31.4c20-3.1 38.1 3.7 38.1 21z" fill="#e2c29c"/><path d="m359 212.6c-1.7 0-5.8-5.9-5.8-16.9 0-4.9 0-13.5.9-17.3 2.2-.3 4.3-.5 6.3-.5 5.2 0 9.7 1 12.2 2.8 1.3.9 2 1.8 2 4.1.1 27.8-10.1 27.8-15.6 27.8z" fill="#f8ddb2"/></g></g></g><path d="m359.5 163.6c-143.8 0-151.4-57.7-151.4-57.7s-5 57.6-55.6 57.6v46.7c.2.6-2.2 37.8 27.9 68.7 8.8 8.3 50.5 63.8 113.9 31.8 18.7-9.4 26.5-21.5 37.3-31.8 15.9-16.3 26-38.2 27.6-61.8.5-6.1.3-53.5.3-53.5z" fill="#f8ddb2"/><path d="m261.8 156.7s23.1 8.8 54.1 10.8 33.7 8.3 33.7 8.3 14.8 48-25.8 90.3-61.4-24.6-61.4-24.6z" fill="#ffe5c0"/></g><g fill="#ebf1f4"><path d="m449.8 415.7c.2.4.5.8.7 1.2-.3-.4-.5-.8-.7-1.2z"/><path d="m452.9 421.2c.3.5.5 1 .7 1.5-.2-.5-.5-1-.7-1.5z"/><path d="m451.4 418.4c.2.4.5.9.7 1.3-.2-.4-.5-.8-.7-1.3z"/><path d="m454.3 424.2c.4.8.7 1.6 1.1 2.4-.3-.8-.7-1.7-1.1-2.4z"/><path d="m448.3 413.4c.2.2.3.5.5.7-.2-.3-.4-.5-.5-.7z"/><path d="m462.6 458.9c0-1.1-.1-2.3-.2-3.4.1 1.2.2 2.3.2 3.4z"/><path d="m456 428.1c.3.7.5 1.3.8 2-.2-.7-.5-1.4-.8-2z"/><path d="m439.6 402.1c.1.1.2.2.3.4-.1-.1-.2-.3-.3-.4z"/><path d="m443.4 406.6c.2.3.4.5.6.8-.2-.3-.4-.5-.6-.8z"/><path d="m441.4 404.2c.2.2.4.5.6.7-.2-.2-.4-.4-.6-.7z"/><path d="m445.3 409.1c.2.2.3.5.5.7-.1-.2-.3-.5-.5-.7z"/><path d=""/><path d="m458 433.2c-.2-.6-.4-1.2-.6-1.8.2.5.4 1.1.6 1.8z"/><path d="m431.6 394.4c-.1-.1-.3-.2-.4-.4.2.2.3.3.4.4z"/><path d="m433.8 396.3c-.1-.1-.1-.1-.2-.2 0 .1.1.2.2.2z"/><path d="m429.2 392.4c-.1-.1-.2-.2-.3-.2.2.1.2.2.3.2z"/><path d="m419.6 385.7c-.1 0-.1-.1-.2-.1.1 0 .1 0 .2.1z"/><path d="m417 384.2c-.1-.1-.2-.1-.3-.2.1.1.2.1.3.2z"/><path d="m461 444.1c-.2-1.1-.5-2.2-.7-3.2.2 1.1.4 2.1.7 3.2z"/><path d="m462 450.9c-.1-.7-.2-1.5-.3-2.2.1.7.2 1.4.3 2.2z"/><path d="m461.6 447.4c-.1-.8-.3-1.6-.4-2.4.1.9.2 1.7.4 2.4z"/><path d="m459 436.4c-.2-.6-.4-1.3-.6-1.9.2.6.4 1.3.6 1.9z"/><path d="m462.4 454.4c-.1-.8-.1-1.6-.2-2.3.1.8.1 1.6.2 2.3z"/><path d="m460 440c-.2-.8-.4-1.5-.6-2.3.2.8.4 1.5.6 2.3z"/><path d="m80.8 394.1c-.1.1-.3.3-.4.4.1-.2.2-.3.4-.4z"/><path d="m50.5 447.4c.1-.8.3-1.7.4-2.5-.2.9-.3 1.7-.4 2.5z"/><path d="m53 436.4c.2-.7.4-1.3.6-2-.2.7-.4 1.4-.6 2z"/><path d="m51.1 444.1c.2-1.1.5-2.2.7-3.3-.3 1.1-.5 2.2-.7 3.3z"/><path d="m52 440c.2-.8.4-1.6.6-2.4-.2.8-.4 1.6-.6 2.4z"/><path d="m55.2 430c.3-.7.6-1.5.9-2.2-.4.8-.7 1.5-.9 2.2z"/><path d="m54 433.2c.2-.6.5-1.3.7-1.9-.2.6-.5 1.2-.7 1.9z"/><path d="m50 450.9c.1-.8.2-1.5.3-2.3-.1.7-.2 1.5-.3 2.3z"/><path d="m442.9 508.5c2 0 4-.3 5.9-.9-1.9.6-3.8.9-5.9.9z"/><path d="m49.4 459v2.7c-.1-1-.1-1.9 0-2.7 0-.1 0 0 0 0z"/><path d="m49.4 458.7c0-1.1.1-2.1.2-3.2-.1 1.1-.2 2.1-.2 3.2z"/><path d="m49.6 454.4c.1-.8.1-1.6.2-2.4 0 .8-.1 1.6-.2 2.4z"/><path d="m56.5 426.7c.4-.9.8-1.7 1.2-2.6-.4.9-.8 1.7-1.2 2.6z"/><path d="m72.1 402.5c.1-.1.3-.3.4-.4-.2.1-.3.3-.4.4z"/><path d="m70 404.9c.2-.3.4-.5.6-.8-.2.3-.4.6-.6.8z"/><path d="m78.4 396.1c-.1.1-.2.2-.3.3.2-.1.3-.2.3-.3z"/><path d="m95.3 384c-.1.1-.2.1-.3.2.1-.1.2-.1.3-.2z"/><path d="m92.6 385.6c-.1 0-.1.1-.2.1.1-.1.2-.1.2-.1z"/><path d="m83.1 392.2c-.1.1-.2.2-.3.2.1 0 .2-.1.3-.2z"/><path d="m61.5 416.9c.3-.4.5-.9.8-1.3-.3.4-.5.9-.8 1.3z"/><path d="m58.3 422.8c.3-.5.5-1.1.8-1.6-.2.5-.5 1.1-.8 1.6z"/><path d="m59.9 419.8c.3-.5.5-.9.8-1.4-.3.4-.5.9-.8 1.4z"/><path d="m66.1 409.9c.2-.3.4-.6.6-.8-.2.3-.4.5-.6.8z"/><path d="m63.2 414.1c.2-.3.4-.6.6-.9-.2.3-.4.6-.6.9z"/><path d="m68 407.4c.2-.3.4-.6.7-.9-.3.4-.5.6-.7.9z"/></g></g></g></g><g><g><g><g><g><g><g><g><g><g><g><circle cx="199.7" cy="189.4" fill="#e2c29c" r="13.6"/><path d="m196.2 189.9c-1.9 0-3.4-1.5-3.4-3.4s1.5-3.4 3.4-3.4 3.4 1.5 3.4 3.4-1.5 3.4-3.4 3.4z" fill="#eef6ff"/></g></g></g></g></g></g></g><g><g><g><g><g><g><g><path d="m312.3 203c-7.5 0-13.6-6.1-13.6-13.6s6.1-13.6 13.6-13.6 13.6 6.1 13.6 13.6-6.1 13.6-13.6 13.6z" fill="#e2c29c"/><path d="m309.4 189.9c-1.9 0-3.4-1.5-3.4-3.4s1.5-3.4 3.4-3.4 3.4 1.5 3.4 3.4-1.6 3.4-3.4 3.4z" fill="#eef6ff"/></g></g></g></g></g></g></g></g></g></g></g><g><g><g><g><g><g><g><g><g><g><g><circle cx="199.7" cy="189.4" fill="#e2c29c" r="13.6"/></g></g></g></g></g></g></g><g><g><g><g><g><g><g><path d="m312.3 203c-7.5 0-13.6-6.1-13.6-13.6s6.1-13.6 13.6-13.6 13.6 6.1 13.6 13.6-6.1 13.6-13.6 13.6z" fill="#e2c29c"/></g></g></g></g></g></g></g></g></g></g></g></g></g></g><path d="m462.7 461.6c0-.9 0-1.8 0-2.7-1.1-39.9-29.3-73.9-68-83.7l-103.2-26-29.1 65.6c-2.4 5.5-10.2 5.5-12.6 0l-29.1-65.6-103.2 26c-38.7 9.8-66.9 43.8-68 83.7v2.7 27.1c0 10.9 8.8 19.7 19.7 19.7h373.8c10.9 0 19.7-8.8 19.7-19.7z" fill="#00b1c3"/><path d="m79.1 476.2c0-.9 0-1.8 0-2.7 1.1-39.9 29.3-74 68-83.7l82.2-20.7-8.8-19.8-103.2 26c-38.7 9.8-66.9 43.8-68 83.7v2.7 27.1c0 10.9 8.8 19.7 19.7 19.7h10.8c-.5-1.7-.7-3.4-.7-5.2z" fill="#00a0a0"/></g><g><path d="m317 108.3c-41.6-9.6-82.1-9.6-123.8 0-5.9 1.4-12-1.5-14.7-7-10.6-21.2-21.9-41.8-34-61.9-4.4-7.3-.8-16.7 7.3-19.3 68.6-22.2 138-22.2 206.6 0 8.1 2.6 11.7 12.1 7.3 19.3-12.2 20.1-23.5 40.6-34 61.9-2.7 5.5-8.8 8.4-14.7 7z" fill="#ebf1f4"/></g><g><path d="m211.3 101.3c-10.6-21.2-21.9-41.8-34-61.9-4.4-7.3-.8-16.7 7.3-19.3 28.9-9.3 57.9-14.7 87-16.2-39.9-2-79.9 3.4-119.7 16.2-8.1 2.6-11.7 12.1-7.3 19.3 12.2 20.1 23.5 40.6 34 61.9 2.7 5.4 8.8 8.3 14.7 7 6.7-1.6 13.4-2.8 20.1-3.9-.8-.9-1.5-1.9-2.1-3.1z" fill="#dfe5e8"/></g></g><g><path d="m339.7 241.6c0-5.6-3.3-10.8-8.4-13.2l-47-22c-18.8-8.8-40.5-8.8-59.3 0l-44.4 20.8c-5.1 2.4-8.4 7.5-8.4 13.2v22.9c0 12.7 5.4 25 15.2 33.2.1 0 .1.1.2.1 37.2 37.2 98.1 37.2 135.3 0 2-2 4-4 5.9-6.1 7.1-8 10.9-18.3 10.9-29z" fill="#ebf1f4"/><g><path d="m216.8 296.7c-.1 0-.1-.1-.2-.1-9.7-8.2-15.2-20.5-15.2-33.2v-45.9l-20.8 9.7c-5.1 2.4-8.4 7.5-8.4 13.2v22.9c0 12.7 5.4 25 15.2 33.2.1 0 .1.1.2.1 22.3 22.3 53.1 31.2 82.2 26.8-19.4-2.8-38.1-11.8-53-26.7z" fill="#dfe5e8"/></g><path d="m331.4 228.5-47-22c-18.8-8.8-40.5-8.8-59.3 0l-44.4 20.8c-5.1 2.4-8.4 7.5-8.4 13.2v6.2l52.8-24.7c18.8-8.8 40.5-8.8 59.3 0l55.3 26v-6.2c0-5.8-3.2-10.9-8.3-13.3z" fill="#bfd7dd"/></g><path d="m278.2 40.9h-12.6v-12.7c0-5.3-4.3-9.6-9.6-9.6s-9.6 4.3-9.6 9.6v12.6h-12.6c-5.3 0-9.6 4.3-9.6 9.6 0 5.3 4.3 9.6 9.6 9.6h12.6v12.6c0 5.3 4.3 9.6 9.6 9.6s9.6-4.3 9.6-9.6v-12.5h12.6c5.3 0 9.6-4.3 9.6-9.6.1-5.3-4.3-9.6-9.6-9.6z" fill="#5edda9"/><path d="m291.4 349.2 22.9 5.8-1.1 37.2c-.5 17.3-16.5 29.9-33.5 26.3l-17.5-3.7z" fill="#05c7d1"/><path d="m220.6 349.2-22.9 5.8 1.1 37.2c.5 17.3 16.5 29.9 33.5 26.3l17.5-3.7z" fill="#05c7d1"/><path d="m197.6 355 .7 21.9 31.1-7.9-8.8-19.8z" fill="#00b1c3"/><path d="m301.5 15.1s41.2 8 47.3 14.3c6 6.3-25.9 66.1-27.7 67.1s-20.9-5.3-20.9-5.3 26.9-19.3 12.3-40.8-39.2-36.9-39.2-36.9z" fill="#f2f9fc"/><path d="m383.1 241.4s6.9 18.8 17.4 28.5c10.6 9.7 11.7 22-6.4 33.4s-84.8 33.2-84.8 33.2v-15.9s26.4-4.9 38.8-29.7c12.5-24.9 35-49.5 35-49.5z" fill="#ffa44a"/><path d="m339.7 370.7s55.3 10.3 79.8 35.6 21.9 89.2 21.9 89.2h-123.5s49.9-30.1 46.1-51.3c-3.9-21.2-10.7-25-10.7-25s17.8-35.5-13.6-48.5z" fill="#02b8c1"/><path d="m254.2 223.8s64.1 21.8 69.5 29.8-36.2 54.3-50.3 57-14.1 2.7-14.1 2.7 9.9-60.9-5.1-89.5z" fill="#f2f9fc"/></g><g fill="#023d51"><ellipse cx="199.7" cy="189.4" rx="11.4" ry="11.4" transform="matrix(.851 -.526 .526 .851 -69.735 133.252)"/><circle cx="312.3" cy="189.4" r="11.4"/><path d="m182.5 173.3c12.3-1.4 32.7 0 32.9 0 1.7.1 3.1-1.1 3.2-2.8s-1.1-3.1-2.8-3.2c-.9-.1-21.1-1.4-34 0-1.7.2-2.9 1.7-2.7 3.3.2 1.5 1.5 2.7 3 2.7z"/><path d="m296.5 173.3c.2 0 20.6-1.4 32.9 0h.3c1.5 0 2.8-1.1 3-2.7.2-1.7-1-3.1-2.7-3.3-12.9-1.4-33.2-.1-34 0-1.7.1-2.9 1.6-2.8 3.2.2 1.6 1.7 2.9 3.3 2.8z"/><path d="m442.9 512c12.8 0 23.3-10.4 23.3-23.3v-27.1c0-.9 0-1.9 0-2.8-1.1-41-30.2-76.8-70.6-87l-90.6-22.8c55.8-9.2 96.2-33.5 116-47.9 4.7-3.4 7.6-8.7 7.9-14.5.3-5.7-2-11.2-6.2-15.1-15.3-13.8-33.6-44.6-33.6-113.3 0-34.1-12-67.2-33.9-93.5 4.5-8 9.1-15.8 13.6-23.4 5.6-9.2 1.1-21.2-9.2-24.5-69.3-22.4-139.6-22.4-208.8 0-10.3 3.3-14.8 15.3-9.2 24.5 4.3 7.1 8.7 14.5 12.9 22-22.6 26.5-35 60-35 94.8 0 68.7-18.3 99.6-33.6 113.3-4.3 3.8-6.5 9.3-6.2 15.1s3.2 11.1 7.9 14.5c20.2 14.7 61.3 39.4 118.1 48.3l-8.8 2.2s0 0-.1 0l-80.2 20.2c-40.5 10.2-69.5 46-70.6 87v2.8 27.1c0 12.8 10.4 23.3 23.3 23.3h373.6zm-132.1-154.3-1 34.4c-.2 7.2-3.6 13.9-9.2 18.3-5.7 4.5-12.9 6.2-20 4.7l-13.3-2.8 26.1-58.9zm-154.4-190.8c20.2-1.2 36-11.7 46-30.6 3.4-6.5 5.6-12.9 7-18.2 3.3 5.6 9 12.5 18.5 19.4 26.4 19.2 69.4 29.1 127.9 29.5-1.2 9.4-6.3 34.8-25.9 56.7l-43.9-20.6c-19.8-9.3-42.5-9.3-62.3 0l-42 19.7c-19.2-21.6-24.1-46.8-25.3-55.9zm18.9 59.6c-4.1 3.4-6.6 8.5-6.6 13.9v17.3c-11.3-19.7-12.7-38.8-12.7-46.8 0-.4 0-.6 0-.9v-16.1c3.9 10.1 10 21.7 19.3 32.6zm160.8.7c9.7-11.2 15.9-23 19.9-33.4 0 11-.1 20.5-.3 22.9-.2 3.2-.6 6.3-1.2 9.5v.3c-1.9 10.9-5.7 21.4-11.3 31.1v-16c.1-5.7-2.7-11-7.1-14.4zm-160.3 13.2c0-4.3 2.5-8.2 6.4-10l44.4-20.8c18.6-8.7 39.2-8 56.3 0l47 22c3.9 1.8 6.4 5.7 6.4 10v20c0 2.7-.3 5.5-.8 8.2-2.2 10.7-7.4 17.1-14.9 24.4-52.6 52.6-137.7 18.1-144.2-24.7-.3-2.1-.5-4.1-.5-6.2v-22.9zm48.3 82.8c10.1 3.3 20.6 5 31.2 5 11 0 22.1-1.8 32.6-5.5v25.7l-11.1 25c-13.7 1.8-27.8 1.8-41.5.1l-11.1-25.1v-25.2zm31.6 58.7c5.9 0 11.9-.3 17.8-.9l-14.4 32.4c-.8 1.9-2.6 2-3.1 2s-2.3-.1-3.1-2l-14.3-32.4c5.7.6 11.4.9 17.1.9zm162.2-105.2c2.7 2.4 4.1 5.8 3.9 9.5s-2 7-5 9.2c-20.3 14.8-62.9 40.3-121.9 48v-23.4c19.5-8.5 42.4-26.8 47.1-47.9 9.5-12.5 15.9-26.7 18.9-41.9 14-2 21.3-11.1 24.8-22.3 6.7 37.8 20.3 58.1 32.2 68.8zm-54.9-109.2c7.1 1.1 18.9 4.8 18.9 17.7 0 22.2-6.4 34.6-19.7 37.6.2-1.8.4-3.6.6-5.5.3-5.1.3-38.2.2-49.8zm19-9.3c0 3.6.1 7.1.2 10.5-5.7-5.6-14.8-8.3-22.5-8.6-.3 0-.6 0-.9.1-40-.1-94.1-4.9-126.2-27.7-13.8-9.8-18.7-19.6-20.3-24.3 34.8-5.7 68.9-4.5 103.9 3.6 7.5 1.7 15.2-1.9 18.6-8.8 5.2-10.5 10.8-21.2 16.6-31.6 19.8 24.5 30.6 55.2 30.6 86.8zm-234.4-120.5c-3.2-5.3-.6-12.2 5.4-14.1 33.9-11.1 68-16.6 102.2-16.6 34.1 0 68.3 5.5 102.2 16.5 5.9 1.9 8.6 8.9 5.4 14.1-11.9 19.6-23.6 40.9-34.2 62.1-2 4-6.4 6.1-10.7 5.1-42.2-9.8-83.2-9.8-125.3 0-4.3 1-8.7-1.1-10.7-5.1-10.8-21.3-22.4-42.4-34.3-62zm-21.1 120.5c0-32.2 11.2-63.3 31.7-88.2 6 10.9 11.8 21.9 17.3 33 3.5 7 11.2 10.6 18.6 8.8 3.3-.8 6.6-1.4 9.9-2.1-.9 5.1-3.1 14.3-7.9 23.4-9.7 18.4-24 26.5-43.7 26.9 0 0-.3 0-.4 0-.3 0-.3 0-.5.1-12.1.9-21 5.6-25.4 13.2.2-4.8.4-9.9.4-15.1zm22.5 52.3v.4c0 2.8.2 7 .8 11.9-13.2-3-19.7-15.3-19.7-37.6 0-12.9 11.8-16.7 18.9-17.7v42.7zm-57.4 84.9c-3-2.2-4.8-5.5-5-9.2-.2-3.6 1.2-7.1 3.9-9.5 12.9-11.6 27.7-34.2 33.5-78.1 2.3 15 9.3 29.1 27 31.6 2.4 11.9 7.6 26.9 18.4 41.3 3.8 21.9 27.2 40.6 47.6 49.1v23.2c-60.7-7.1-104.5-33.2-125.4-48.4zm127 57.9 26.1 58.9-13.3 2.8c-7 1.5-14.3-.2-20-4.7s-9-11.1-9.2-18.3l-1-34.4zm-165.8 135.4v-27.1c0-.9 0-1.7 0-2.6 1-37.9 27.9-70.9 65.3-80.4l76-19.2.9 32.8c.3 9.3 4.6 17.9 11.9 23.7 7.2 5.6 16.6 8 25.8 6l15.2-3.2c1.9 2.3 4.8 3.7 8 3.7 3.2 0 6-1.4 8-3.7l15.1 3.2c10.9 2.3 22.1-1.4 29.6-9.5 5-5.5 7.9-12.6 8.1-20.1l.9-32.8 76 19.2c37.4 9.4 64.3 42.5 65.3 80.4v2.6 27.1c0 8.9-7.3 16.2-16.2 16.2h-373.6c-9 0-16.3-7.3-16.3-16.3z"/><path d="m233.8 63.6h9.1v9.1c0 7.2 5.9 13.1 13.1 13.1s13.1-5.9 13.1-13.1v-9.1h9.1c7.2 0 13.1-5.9 13.1-13.1s-5.9-13.1-13.1-13.1h-9.1v-9.1c0-7.2-5.9-13.1-13.1-13.1s-13.1 5.9-13.1 13.1v9.1h-9.1c-7.2 0-13.1 5.9-13.1 13.1s5.8 13.1 13.1 13.1zm0-19.2h12.6c1.9 0 3.5-1.6 3.5-3.5v-12.7c0-3.4 2.7-6.1 6.1-6.1s6.1 2.7 6.1 6.1v12.6c0 1.9 1.6 3.5 3.5 3.5h12.6c3.4 0 6.1 2.7 6.1 6.1s-2.7 6.1-6.1 6.1h-12.6c-1.9 0-3.5 1.6-3.5 3.5v12.6c0 3.4-2.7 6.1-6.1 6.1s-6.1-2.7-6.1-6.1v-12.5c0-1.9-1.6-3.5-3.5-3.5h-12.6c-3.4 0-6.1-2.7-6.1-6.1s2.7-6.1 6.1-6.1z"/></g><path d="m196.2 189.9c-1.9 0-3.4-1.5-3.4-3.4s1.5-3.4 3.4-3.4 3.4 1.5 3.4 3.4-1.5 3.4-3.4 3.4z" fill="#eef6ff"/><path d="m309.4 189.9c-1.9 0-3.4-1.5-3.4-3.4s1.5-3.4 3.4-3.4 3.4 1.5 3.4 3.4-1.6 3.4-3.4 3.4z" fill="#eef6ff"/></g></g><g id="_x32_9"/><g id="_x32_8"/><g id="_x32_7"/><g id="_x32_6"/><g id="_x32_5"/><g id="_x32_4"/><g id="_x32_3"/><g id="_x32_2"/><g id="_x32_1"/><g id="_x32_0"/><g id="_x31_9"/><g id="_x31_8"/><g id="_x31_7"/><g id="_x31_6"/><g id="_x31_5"/><g id="_x31_4"/><g id="_x31_3"/><g id="_x31_2"/><g id="_x31_1"/><g id="_x31_0"/><g id="_x30_9"/><g id="_x30_8"/><g id="_x30_7"/><g id="_x30_6"/><g id="_x30_5"/><g id="_x30_4"/><g id="_x30_3"/><g id="_x30_2"/><g id="_x30_1"/><g id="Layer_2"/></svg>